<svg width="64" height="64" viewBox="0 0 64 64" fill="none" xmlns="http://www.w3.org/2000/svg">
<path opacity="0.2" d="M22 54C23.1585 54.0006 24.2924 53.6657 25.2647 53.0359C26.2371 52.4061 27.0063 51.5082 27.4795 50.4508C27.9527 49.3934 28.1097 48.2215 27.9314 47.0768C27.7532 45.9321 27.2473 44.8635 26.475 44H54.475C55.2473 44.8635 55.7532 45.9321 55.9314 47.0768C56.1097 48.2215 55.9527 49.3934 55.4795 50.4508C55.0063 51.5082 54.2371 52.4061 53.2647 53.0359C52.2924 53.6657 51.1585 54.0006 50 54H22Z" fill="#482DEB"/>
<path d="M50 44V16C50.0033 15.2111 49.8504 14.4294 49.55 13.7C49.2497 12.9705 48.8078 12.3078 48.25 11.75C47.6922 11.1922 47.0295 10.7503 46.3 10.45C45.5706 10.1496 44.7889 9.99668 44 9.99999H10" stroke="#482DEB" stroke-width="2" stroke-linecap="round" stroke-linejoin="round"/>
<path d="M26 26H42" stroke="#482DEB" stroke-width="2" stroke-linecap="round" stroke-linejoin="round"/>
<path d="M26 34H42" stroke="#482DEB" stroke-width="2" stroke-linecap="round" stroke-linejoin="round"/>
<path d="M5.525 20C4.87734 19.2748 4.41561 18.4032 4.17954 17.46C3.94348 16.5168 3.94015 15.5304 4.16985 14.5857C4.39955 13.6409 4.85539 12.7662 5.49814 12.0367C6.14089 11.3072 6.95129 10.7448 7.85958 10.3979C8.76787 10.0511 9.74684 9.93019 10.7122 10.0456C11.6776 10.161 12.6005 10.5093 13.4014 11.0605C14.2024 11.6117 14.8574 12.3492 15.31 13.2097C15.7627 14.0701 15.9995 15.0277 16 16V48C16.0005 48.9722 16.2373 49.9298 16.69 50.7903C17.1426 51.6507 17.7976 52.3883 18.5986 52.9395C19.3995 53.4906 20.3224 53.8389 21.2878 53.9543C22.2532 54.0698 23.2321 53.9488 24.1404 53.602C25.0487 53.2552 25.8591 52.6928 26.5019 51.9633C27.1446 51.2338 27.6005 50.359 27.8302 49.4143C28.0598 48.4695 28.0565 47.4831 27.8205 46.54C27.5844 45.5968 27.1227 44.7251 26.475 44H54.475C55.2473 44.8635 55.7532 45.9321 55.9314 47.0768C56.1097 48.2215 55.9527 49.3933 55.4795 50.4508C55.0063 51.5082 54.2371 52.4061 53.2647 53.0359C52.2924 53.6657 51.1585 54.0005 50 54H22" stroke="#482DEB" stroke-width="2" stroke-linecap="round" stroke-linejoin="round"/>
</svg>
