<svg width="64" height="64" viewBox="0 0 64 64" fill="none" xmlns="http://www.w3.org/2000/svg">
<path opacity="0.2" d="M31.0424 55.8023C30.7498 55.6388 30.504 55.403 30.3284 55.1175C30.3283 55.1174 30.3283 55.1173 30.3282 55.1173L26.6289 48.9434C26.6289 48.9433 26.6288 48.9433 26.6288 48.9432C26.4493 48.6375 26.1931 48.3839 25.8856 48.2076C25.578 48.0311 25.2297 47.9381 24.8751 47.9375H24.875H10C9.48614 47.9375 8.99333 47.7334 8.62998 47.37C8.26663 47.0067 8.0625 46.5139 8.0625 46V14C8.0625 13.4861 8.26663 12.9933 8.62998 12.63C8.99333 12.2666 9.48614 12.0625 10 12.0625H54C54.5139 12.0625 55.0067 12.2666 55.37 12.63C55.7334 12.9933 55.9375 13.4861 55.9375 14V46C55.9375 46.5139 55.7334 47.0067 55.37 47.37C55.0067 47.7334 54.5139 47.9375 54 47.9375H39.125H39.1249C38.7703 47.9381 38.422 48.0311 38.1144 48.2076C37.8069 48.3839 37.5507 48.6375 37.3712 48.9432C37.3712 48.9433 37.3711 48.9433 37.3711 48.9434L33.6718 55.1173C33.6717 55.1173 33.6717 55.1174 33.6716 55.1175C33.496 55.403 33.2502 55.6388 32.9576 55.8023C32.665 55.9659 32.3353 56.0518 32 56.0518C31.6647 56.0518 31.335 55.9659 31.0424 55.8023Z" fill="white" stroke="#482DEB" stroke-width="0.125"/>
<path d="M37.425 48.975L33.725 55.15C33.5438 55.4447 33.2901 55.6881 32.9881 55.8569C32.6861 56.0257 32.346 56.1143 32 56.1143C31.654 56.1143 31.3138 56.0257 31.0119 55.8569C30.7099 55.6881 30.4562 55.4447 30.275 55.15L26.575 48.975C26.401 48.6786 26.1526 48.4328 25.8545 48.2618C25.5563 48.0908 25.2187 48.0005 24.875 48H10C9.46957 48 8.96086 47.7893 8.58579 47.4142C8.21071 47.0391 8 46.5304 8 46V14C8 13.4696 8.21071 12.9609 8.58579 12.5858C8.96086 12.2107 9.46957 12 10 12H54C54.5304 12 55.0391 12.2107 55.4142 12.5858C55.7893 12.9609 56 13.4696 56 14V46C56 46.5304 55.7893 47.0391 55.4142 47.4142C55.0391 47.7893 54.5304 48 54 48H39.125C38.7813 48.0005 38.4437 48.0908 38.1455 48.2618C37.8474 48.4328 37.599 48.6786 37.425 48.975V48.975Z" stroke="#482DEB" stroke-width="2" stroke-linecap="round" stroke-linejoin="round"/>
<path d="M32 33C33.6569 33 35 31.6569 35 30C35 28.3431 33.6569 27 32 27C30.3431 27 29 28.3431 29 30C29 31.6569 30.3431 33 32 33Z" fill="#7F6CF1"/>
<path d="M34.9375 30C34.9375 31.6223 33.6223 32.9375 32 32.9375C30.3777 32.9375 29.0625 31.6223 29.0625 30C29.0625 28.3777 30.3777 27.0625 32 27.0625C33.6223 27.0625 34.9375 28.3777 34.9375 30Z" stroke="#482DEB" stroke-opacity="0.5" stroke-width="0.125"/>
<path d="M20 33C21.6569 33 23 31.6569 23 30C23 28.3431 21.6569 27 20 27C18.3431 27 17 28.3431 17 30C17 31.6569 18.3431 33 20 33Z" fill="#7F6CF1"/>
<path d="M22.9375 30C22.9375 31.6223 21.6223 32.9375 20 32.9375C18.3777 32.9375 17.0625 31.6223 17.0625 30C17.0625 28.3777 18.3777 27.0625 20 27.0625C21.6223 27.0625 22.9375 28.3777 22.9375 30Z" stroke="#482DEB" stroke-opacity="0.5" stroke-width="0.125"/>
<path d="M44 33C45.6569 33 47 31.6569 47 30C47 28.3431 45.6569 27 44 27C42.3431 27 41 28.3431 41 30C41 31.6569 42.3431 33 44 33Z" fill="#7F6CF1"/>
<path d="M46.9375 30C46.9375 31.6223 45.6223 32.9375 44 32.9375C42.3777 32.9375 41.0625 31.6223 41.0625 30C41.0625 28.3777 42.3777 27.0625 44 27.0625C45.6223 27.0625 46.9375 28.3777 46.9375 30Z" stroke="#482DEB" stroke-opacity="0.5" stroke-width="0.125"/>
</svg>
