<svg width="627" height="81" viewBox="0 0 627 81" fill="none" xmlns="http://www.w3.org/2000/svg">
<g clip-path="url(#clip0_7270_311)">
<path d="M120.803 34.5069C125.486 34.5069 129.448 37.1542 131.731 41.1155L131.854 41.2326L138.58 37.3884L138.456 37.2713C135.334 30.7667 128.368 26.942 120.686 26.942C114.559 26.942 109.394 29.108 105.797 32.7051C102.2 36.3021 100.027 41.3562 100.027 47.3599C100.027 59.0097 108.438 67.5242 120.445 67.5242C128.127 67.5242 135.094 63.5629 138.339 57.4421L138.456 57.3185L131.731 53.3377L131.614 53.4547C129.662 57.1819 125.109 59.9593 120.556 59.9593C113.472 59.9593 108.308 54.4369 108.308 47.3534C108.197 40.1529 113.602 34.5069 120.803 34.5069Z" fill="white"/>
<path d="M223.426 32.9457C221.926 31.0457 220.009 29.5161 217.823 28.4751C215.637 27.4341 213.241 26.9095 210.821 26.942C199.763 26.942 191.482 35.9508 191.482 47.2363C191.482 58.5218 199.652 67.6477 210.821 67.6477C213.255 67.6551 215.661 67.1201 217.862 66.0816C220.064 65.0431 222.007 63.5272 223.55 61.644V66.6851H231.596V12.2936H223.309V32.9457H223.426ZM211.777 60.0894C204.453 60.0894 199.652 54.3263 199.652 47.2363C199.652 40.1463 204.453 34.5068 211.777 34.5068C219.101 34.5068 223.908 40.2764 223.908 47.2363C223.908 54.1962 219.205 60.0894 211.777 60.0894Z" fill="white"/>
<path d="M271.339 32.9457C269.756 31.0481 267.771 29.5254 265.528 28.4872C263.285 27.4491 260.84 26.9213 258.369 26.942C247.2 26.942 239.037 35.4695 239.037 46.9957C239.037 58.5218 247.083 67.5307 258.369 67.5307C263.898 67.5307 268.126 65.1305 271.339 61.6765V66.7176H279.144V28.0218H271.339V32.9457ZM259.455 60.0894C252.124 60.0894 247.324 54.3263 247.324 47.3599C247.324 40.3935 252.007 34.5068 259.455 34.5068C266.903 34.5068 271.703 40.3935 271.703 47.2363C271.703 54.2027 266.779 60.0894 259.455 60.0894Z" fill="white"/>
<path d="M308.806 57.8063L308.689 57.9234C306.646 59.1267 304.487 60.0894 301.963 60.0894C301.136 60.1321 300.309 59.9929 299.542 59.6816C298.774 59.3703 298.084 58.8944 297.52 58.2876C296.558 57.0843 296.22 55.2825 296.22 52.9994V35.1248H309.43V28.0217H296.2V14.3101H288.154L288.03 52.7392C288.03 57.4225 289.117 61.1431 291.152 63.6669C293.319 66.1842 296.441 67.5046 300.76 67.5046C304.604 67.5046 308.565 66.4249 311.447 64.2523L311.57 64.1287L308.806 57.8063Z" fill="white"/>
<path d="M164.826 26.942C152.819 26.942 144.408 36.1916 144.408 47.2364C144.402 58.4047 152.819 67.6478 164.826 67.6478C176.834 67.6478 185.238 58.5413 185.238 47.2298C185.238 35.9184 176.834 26.942 164.826 26.942ZM164.826 59.9658C157.983 59.9658 152.578 54.3264 152.578 47.2364C152.578 40.1463 157.983 34.5069 164.826 34.5069C171.669 34.5069 177.074 40.3935 177.074 47.2364C176.957 54.2028 171.669 59.9658 164.826 59.9658Z" fill="white"/>
<path d="M27.9695 0.0455129L7.32394 14.2125C7.26671 14.303 7.23633 14.4079 7.23633 14.515C7.23633 14.6221 7.26671 14.7269 7.32394 14.8174L15.253 20.2163C15.2736 20.2445 15.3005 20.2674 15.3315 20.2833C15.3626 20.2991 15.397 20.3074 15.4319 20.3074C15.4668 20.3074 15.5012 20.2991 15.5323 20.2833C15.5634 20.2674 15.5903 20.2445 15.6108 20.2163L28.3403 11.4546C28.4574 11.4546 28.4574 11.331 28.4574 11.2139V0.403266C28.4574 0.0455129 28.2167 -0.0780743 27.9695 0.0455129Z" fill="white"/>
<path d="M72.2923 49.2788L44.4332 68.4934C44.3096 68.6104 44.3096 68.6104 44.3096 68.734V79.6617C44.3096 79.9024 44.6738 80.1431 44.7909 79.9024L72.6501 60.6878C72.7737 60.5708 72.7737 60.5708 72.7737 60.4472V49.5194C72.8908 49.2788 72.533 49.1617 72.2923 49.2788Z" fill="white"/>
<path d="M57.1621 48.5568C57.1826 48.585 57.2095 48.6079 57.2406 48.6238C57.2717 48.6396 57.3061 48.6479 57.341 48.6479C57.3759 48.6479 57.4103 48.6396 57.4414 48.6238C57.4724 48.6079 57.4993 48.585 57.5199 48.5568L65.449 43.1579C65.5016 43.1269 65.5451 43.0827 65.5754 43.0296C65.6057 42.9766 65.6216 42.9166 65.6216 42.8555C65.6216 42.7944 65.6057 42.7344 65.5754 42.6813C65.5451 42.6283 65.5016 42.5841 65.449 42.553L44.914 28.386C44.6733 28.2624 44.4326 28.386 44.4326 28.6267V39.5544C44.4326 39.6715 44.4326 39.7951 44.5497 39.7951L57.1621 48.5568Z" fill="white"/>
<path d="M0.48134 21.0619C0.24067 20.9383 0 21.0619 0 21.3025V32.2302C0 32.3473 0 32.4709 0.117083 32.4709L27.9698 51.679C28.0143 51.7113 28.0669 51.7307 28.1217 51.735C28.1766 51.7394 28.2316 51.7285 28.2807 51.7036C28.3297 51.6787 28.371 51.6408 28.3999 51.594C28.4288 51.5472 28.4443 51.4933 28.4446 51.4383V40.5106C28.4446 40.3935 28.4446 40.2764 28.3275 40.2764L0.48134 21.0619Z" fill="white"/>
</g>
<path d="M320.72 78.4345V73.804H352.22V78.4345H320.72ZM374.592 20.4745V58.81C374.592 60.448 375.096 61.6135 376.104 62.3065C377.133 62.9785 378.456 63.3145 380.073 63.3145C381.081 63.3145 382.037 63.2095 382.94 62.9995C383.843 62.7895 384.746 62.506 385.649 62.149L387.066 66.0235C386.163 66.4645 385.04 66.853 383.696 67.189C382.373 67.546 380.871 67.7245 379.191 67.7245C376.251 67.7245 373.868 66.916 372.041 65.299C370.214 63.661 369.3 61.4035 369.3 58.5265V24.664H359.126V20.4745H374.592ZM403.611 52.2895C403.716 54.8515 404.209 56.9515 405.091 58.5895C405.973 60.2065 407.139 61.4035 408.588 62.1805C410.037 62.9365 411.612 63.3145 413.313 63.3145C415.014 63.3145 416.547 63.0625 417.912 62.5585C419.298 62.0545 420.715 61.309 422.164 60.322L424.653 63.8185C423.099 65.0365 421.324 65.992 419.329 66.685C417.355 67.378 415.329 67.7245 413.25 67.7245C410.037 67.7245 407.296 67 405.028 65.551C402.76 64.102 401.028 62.086 399.831 59.503C398.655 56.899 398.067 53.8855 398.067 50.4625C398.067 47.1025 398.665 44.1205 399.862 41.5165C401.059 38.9125 402.739 36.865 404.902 35.374C407.065 33.883 409.617 33.1375 412.557 33.1375C415.35 33.1375 417.754 33.799 419.77 35.122C421.786 36.424 423.33 38.293 424.401 40.729C425.493 43.144 426.039 46.0315 426.039 49.3915C426.039 49.9585 426.028 50.494 426.007 50.998C425.986 51.481 425.955 51.9115 425.913 52.2895H403.611ZM412.62 37.4845C410.163 37.4845 408.105 38.356 406.446 40.099C404.808 41.842 403.873 44.5405 403.642 48.1945H420.936C420.873 44.6455 420.096 41.9785 418.605 40.1935C417.114 38.3875 415.119 37.4845 412.62 37.4845ZM464.192 30.3025L465.83 35.2795C464.423 35.7205 462.921 35.9935 461.325 36.0985C459.729 36.2035 457.997 36.256 456.128 36.256C458.039 37.138 459.477 38.2825 460.443 39.6895C461.409 41.0755 461.892 42.7135 461.892 44.6035C461.892 46.7875 461.399 48.73 460.412 50.431C459.425 52.132 457.997 53.4655 456.128 54.4315C454.28 55.3975 452.043 55.8805 449.418 55.8805C448.305 55.8805 447.371 55.828 446.615 55.723C445.88 55.618 445.166 55.4605 444.473 55.2505C443.969 55.5865 443.549 56.0485 443.213 56.6365C442.898 57.2245 442.74 57.8335 442.74 58.4635C442.74 59.2615 443.055 59.923 443.685 60.448C444.315 60.973 445.481 61.2355 447.182 61.2355H453.167C455.393 61.2355 457.388 61.6345 459.152 62.4325C460.937 63.2305 462.333 64.3015 463.341 65.6455C464.37 66.9895 464.885 68.5225 464.885 70.2445C464.885 73.4995 463.499 75.9985 460.727 77.7415C457.976 79.4845 454.08 80.356 449.04 80.356C445.512 80.356 442.73 79.9885 440.693 79.2535C438.656 78.5395 437.196 77.437 436.314 75.946C435.453 74.476 435.023 72.6175 435.023 70.3705H439.811C439.811 71.6515 440.063 72.712 440.567 73.552C441.071 74.392 441.984 75.0115 443.307 75.4105C444.63 75.8305 446.531 76.0405 449.009 76.0405C451.445 76.0405 453.429 75.8305 454.962 75.4105C456.516 75.0115 457.661 74.4025 458.396 73.5835C459.152 72.7855 459.53 71.788 459.53 70.591C459.53 69.016 458.816 67.8295 457.388 67.0315C455.96 66.2335 454.175 65.8345 452.033 65.8345H446.111C443.255 65.8345 441.144 65.2045 439.779 63.9445C438.435 62.6845 437.763 61.2355 437.763 59.5975C437.763 58.5265 438.068 57.487 438.677 56.479C439.307 55.471 440.22 54.5785 441.417 53.8015C439.506 52.7935 438.099 51.544 437.196 50.053C436.293 48.562 435.842 46.756 435.842 44.635C435.842 42.388 436.398 40.4035 437.511 38.6815C438.624 36.9385 440.178 35.5735 442.173 34.5865C444.168 33.5995 446.468 33.106 449.072 33.106C451.865 33.085 454.133 32.9695 455.876 32.7595C457.619 32.5285 459.11 32.203 460.349 31.783C461.609 31.363 462.89 30.8695 464.192 30.3025ZM449.072 36.9805C446.405 36.9805 444.431 37.705 443.15 39.154C441.89 40.582 441.26 42.409 441.26 44.635C441.26 46.882 441.911 48.73 443.213 50.179C444.515 51.628 446.51 52.3525 449.198 52.3525C451.55 52.3525 453.335 51.67 454.553 50.305C455.792 48.94 456.411 47.0395 456.411 44.6035C456.411 42.1045 455.792 40.2145 454.553 38.9335C453.335 37.6315 451.508 36.9805 449.072 36.9805ZM498.754 59.755C498.754 61.078 498.975 62.044 499.416 62.653C499.857 63.262 500.539 63.7135 501.463 64.0075L500.172 67.7245C498.744 67.5355 497.494 67.084 496.423 66.37C495.352 65.635 494.575 64.5325 494.092 63.0625C492.895 64.5955 491.404 65.761 489.619 66.559C487.834 67.336 485.86 67.7245 483.697 67.7245C480.379 67.7245 477.765 66.79 475.854 64.921C473.943 63.052 472.987 60.574 472.987 57.487C472.987 54.064 474.321 51.439 476.988 49.612C479.655 47.785 483.508 46.8715 488.548 46.8715H493.431V44.0995C493.431 41.7055 492.727 40.015 491.32 39.028C489.934 38.02 488.002 37.516 485.524 37.516C484.432 37.516 483.151 37.6525 481.681 37.9255C480.211 38.1775 478.615 38.608 476.893 39.217L475.507 35.2165C477.544 34.4605 479.455 33.925 481.24 33.61C483.025 33.295 484.726 33.1375 486.343 33.1375C490.48 33.1375 493.578 34.1035 495.636 36.0355C497.715 37.9465 498.754 40.5505 498.754 43.8475V59.755ZM485.052 63.6925C486.69 63.6925 488.254 63.283 489.745 62.464C491.236 61.624 492.465 60.469 493.431 58.999V50.4625H488.643C484.989 50.4625 482.406 51.0925 480.894 52.3525C479.403 53.6125 478.657 55.303 478.657 57.424C478.657 59.482 479.182 61.0465 480.232 62.1175C481.303 63.1675 482.91 63.6925 485.052 63.6925ZM525.694 20.4745V58.81C525.694 60.448 526.198 61.6135 527.206 62.3065C528.235 62.9785 529.558 63.3145 531.175 63.3145C532.183 63.3145 533.138 63.2095 534.041 62.9995C534.944 62.7895 535.847 62.506 536.75 62.149L538.168 66.0235C537.265 66.4645 536.141 66.853 534.797 67.189C533.474 67.546 531.973 67.7245 530.293 67.7245C527.353 67.7245 524.969 66.916 523.142 65.299C521.315 63.661 520.402 61.4035 520.402 58.5265V24.664H510.227V20.4745H525.694Z" fill="white"/>
<defs>
<clipPath id="clip0_7270_311">
<rect width="311.57" height="80" fill="white"/>
</clipPath>
</defs>
</svg>
